<?xml version="1.0" encoding="utf-8"?>
<!-- Generator: Adobe Illustrator 24.0.0, SVG Export Plug-In . SVG Version: 6.00 Build 0)  -->
<svg version="1.1" id="Layer_1" xmlns="http://www.w3.org/2000/svg" xmlns:xlink="http://www.w3.org/1999/xlink" x="0px" y="0px"
	 viewBox="0 0 256 256" style="fill:#FFF; enable-background:new 0 0 256 256;" xml:space="preserve">
<g>
	<path d="M255,26c0,67.33,0,134.67,0,202c-3.54,14.46-12.54,23.46-27,27c-67.33,0-134.67,0-202,0c-4.62-2.07-9.56-3.63-13.8-6.31
		C4.71,243.96,1.29,236.25-1,228c0-67.33,0-134.67,0-202C2.55,11.55,11.54,2.54,26-1c67.33,0,134.67,0,202,0
		c4.49,1.97,9.27,3.47,13.4,6.01C249.12,9.77,252.67,17.57,255,26z M245,126.61c0-31.16,0.01-62.32-0.01-93.47
		C244.99,17.9,236.03,9.01,220.71,9C158.22,8.99,95.74,8.99,33.26,9c-15.3,0-24.25,8.91-24.25,24.16
		C8.99,95.65,8.99,158.14,9,220.62c0,15.56,8.88,24.38,24.54,24.38c62.32,0.01,124.63,0.01,186.95,0c15.65,0,24.5-8.82,24.5-24.41
		C245.01,189.26,245,157.93,245,126.61z"/>
	<path d="M150.07,125.22c14.78,7.94,19.35,17.52,15.94,33.15c-2.04,9.36-7.74,15.79-16.54,19.15c-4.3,1.64-8.97,2.37-13.52,3.22
		c-2.26,0.42-4.65,0.24-6.97,0.24c-12.46,0.02-24.92,0.01-37.73,0.01c0-35.66,0-71,0-107c4.41,0,8.84-0.09,13.27,0.02
		c11.63,0.27,23.35-0.16,34.87,1.14c16.33,1.85,24.89,12.09,24.92,27.72c0.02,8.69-3.62,15.37-10.85,20.13
		C152.37,123.73,151.28,124.43,150.07,125.22z M109.8,133.11c0,11.28,0,21.95,0,32.28c8.85,0,17.39,0.8,25.7-0.21
		c9.18-1.11,13.36-7.62,12.79-17.09c-0.55-9.12-5.48-14.41-14.77-14.89C125.76,132.79,117.95,133.11,109.8,133.11z M109.68,118.97
		c6.4,0,12.53,0.33,18.61-0.12c3.71-0.27,7.63-1.14,10.92-2.8c5.75-2.89,7.17-8.39,6.57-14.44c-0.56-5.65-3.31-10.39-9-11.19
		c-8.9-1.25-17.96-1.3-27.12-1.88C109.68,99.39,109.68,108.96,109.68,118.97z"/>
</g>
</svg>
