<?xml version="1.0" encoding="utf-8"?>
<!-- Generator: Adobe Illustrator 24.0.0, SVG Export Plug-In . SVG Version: 6.00 Build 0)  -->
<svg version="1.1" id="Layer_1" xmlns="http://www.w3.org/2000/svg" xmlns:xlink="http://www.w3.org/1999/xlink" x="0px" y="0px"
	 viewBox="0 0 256 256" style="fill:#FFF; enable-background:new 0 0 256 256;" xml:space="preserve">
<g>
	<path d="M255,26c0,67.33,0,134.67,0,202c-3.54,14.46-12.54,23.46-27,27c-67.33,0-134.67,0-202,0c-4.62-2.07-9.56-3.63-13.8-6.31
		C4.71,243.96,1.29,236.25-1,228c0-67.33,0-134.67,0-202C2.55,11.55,11.54,2.54,26-1c67.33,0,134.67,0,202,0
		c4.49,1.97,9.27,3.47,13.4,6.01C249.12,9.77,252.67,17.57,255,26z M245,127.15c0-31.32,0.01-62.65-0.01-93.97
		c-0.01-15.25-8.95-24.17-24.25-24.17C158.26,8.99,95.78,8.99,33.3,9c-15.33,0-24.29,8.89-24.29,24.12
		C8.99,95.61,8.99,158.1,9,220.58c0,15.59,8.86,24.42,24.5,24.42c62.32,0.01,124.63,0.01,186.95,0c15.67,0,24.54-8.81,24.54-24.37
		C245.01,189.47,245,158.31,245,127.15z"/>
	<path d="M63.1,180.7c0-35.51,0-70.76,0-106.35c22.3,0,44.53,0,67.18,0c0,4.59,0,9.3,0,14.52c-16.08,0-32.14,0-48.55,0
		c0,10.9,0,21.3,0,32.16c14.16,0,28.07,0,42.23,0c0,5.07,0,9.67,0,14.77c-13.91,0-27.82,0-42.36,0c0,15.19,0,29.9,0,44.89
		C75.21,180.7,69.45,180.7,63.1,180.7z"/>
	<path d="M190.85,73.3c0,36.47,0,71.84,0,107.45c-5.69,0-11.13,0-17.27,0c0-28.16,0-56.32,0-85.46c-9.15,3.01-17.39,5.72-26.35,8.66
		c0-4.68-0.1-8.77,0.08-12.86c0.04-0.93,0.85-2.35,1.64-2.65C162.63,83.41,176.36,78.51,190.85,73.3z"/>
</g>
</svg>
