<?xml version="1.0" encoding="utf-8"?>
<!-- Generator: Adobe Illustrator 24.0.0, SVG Export Plug-In . SVG Version: 6.00 Build 0)  -->
<svg version="1.1" id="Layer_1" xmlns="http://www.w3.org/2000/svg" xmlns:xlink="http://www.w3.org/1999/xlink" x="0px" y="0px"
	 viewBox="0 0 256 256" style="fill:#FFF; enable-background:new 0 0 256 256;" xml:space="preserve">
<g>
	<path d="M256,27c0,67.33,0,134.67,0,202c-3.54,14.46-12.54,23.46-27,27c-67.33,0-134.67,0-202,0c-4.62-2.07-9.56-3.63-13.8-6.31
		C5.71,244.96,2.29,237.25,0,229C0,161.67,0,94.33,0,27C3.55,12.55,12.54,3.54,27,0c67.33,0,134.67,0,202,0
		c4.49,1.97,9.27,3.47,13.4,6.01C250.12,10.77,253.67,18.57,256,27z M246,128.39c0-31.32,0.01-62.65,0-93.97
		c-0.01-15.59-8.86-24.41-24.51-24.41C159.17,9.99,96.86,10,34.54,10c-15.66,0-24.53,8.82-24.54,24.38
		c-0.01,62.48-0.01,124.97,0,187.45c0,15.25,8.95,24.16,24.25,24.16c62.48,0.01,124.97,0.01,187.45,0
		c15.33,0,24.28-8.89,24.29-24.13C246.01,190.71,246,159.55,246,128.39z"/>
	<path d="M150.43,106.84C145.97,91.09,135.74,84.99,120.7,89c-9.73,2.6-14.42,9.92-16.45,18.94c-2.78,12.31-2.99,24.86-0.17,37.19
		c4.44,19.41,24.33,28.08,41.95,18.66c2.68-1.43,4.33-3.16,4.12-6.6c-0.32-5.13-0.08-10.3-0.08-16.03c-7.33,0-14.39,0-21.72,0
		c0-5.18,0-9.78,0-14.77c13.19,0,26.42,0,40.35,0c0,1.55,0,3.16,0,4.76c0,9.83-0.37,19.69,0.15,29.49
		c0.29,5.42-1.75,9.02-5.87,11.72c-16.97,11.12-35.27,13.23-53.77,5.32c-17.38-7.42-23.98-22.81-25.12-40.65
		c-0.75-11.78-0.97-23.64,2.8-35.16c9.05-27.67,44.36-38.74,67.66-21.1c8.49,6.43,12.43,15.3,13.75,26.07
		C162.26,106.84,156.54,106.84,150.43,106.84z"/>
</g>
</svg>
