<?xml version="1.0" encoding="utf-8"?>
<!-- Generator: Adobe Illustrator 24.0.0, SVG Export Plug-In . SVG Version: 6.00 Build 0)  -->
<svg version="1.1" id="Layer_1" xmlns="http://www.w3.org/2000/svg" xmlns:xlink="http://www.w3.org/1999/xlink" x="0px" y="0px"
	 viewBox="0 0 413.04 256" style="fill:#FFF; enable-background:new 0 0 413.04 256;" xml:space="preserve">
<g>
	<path d="M387.02,256c-120.01,0-240.01,0-360.02,0c-5.65-2.91-11.92-5.04-16.74-8.97C6.28,243.79,4.02,238.43,1,234
		C1,163.33,1,92.67,1,22C6.18,10.54,14.55,2.86,27,0c120.01,0,240.01,0,360.02,0c1.09,0.36,2.17,0.78,3.28,1.09
		c13.95,3.92,23.63,16,23.66,30.48c0.11,64.29,0.11,128.57,0,192.86c-0.02,14.49-9.71,26.58-23.65,30.49
		C389.19,255.22,388.11,255.64,387.02,256z M207.3,10c-57.32,0-114.63,0-171.95,0C18.66,10,10,18.58,10,35.12
		C10,97.1,10,159.08,10,221.06c0,16.24,8.73,24.94,25.02,24.94c114.63,0.01,229.27,0,343.9,0c16.33,0,25.09-8.68,25.09-24.87
		c0.01-61.98,0.01-123.96,0-185.94c0-16.59-8.62-25.19-25.27-25.19C321.6,10,264.45,10,207.3,10z"/>
	<path d="M210.31,84c5.02,0,9.55,0.33,14.01-0.09c4.37-0.41,6.34,1.07,7.86,5.28c6.87,19.09,14.16,38.03,21.3,57.02
		c0.58,1.55,1.25,3.07,2.19,5.39c0.94-2.27,1.67-3.88,2.29-5.53c7.31-19.46,14.68-38.9,21.85-58.42c1.03-2.79,2.33-3.87,5.33-3.72
		c5.12,0.25,10.27,0.07,15.72,0.07c0,29.76,0,59.14,0,88.77c-4.92,0-9.66,0-14.37,0c0-21.63,0-43.05,0-64.84
		c-0.56,1.1-1.16,2.08-1.56,3.13c-7.03,18.32-14.25,36.58-20.92,55.03c-1.93,5.33-4.36,8.16-10.22,6.96
		c-1.12-0.23-2.31-0.13-3.77-0.2c-8.36-21.81-16.72-43.65-25.28-66c0,22.33,0,43.98,0,65.9c-4.62,0-9.37,0-14.43,0
		C210.31,143.27,210.31,113.89,210.31,84z"/>
	<path d="M90.2,172.7c0-13.15,0-26.08,0-39.34c-13.31,0-26.19,0-39.59,0c0,13.1,0,26.03,0,39.31c-5.36,0-10.23,0-15.35,0
		c0-29.37,0-58.64,0-88.29c4.83,0,9.73,0,15.09,0c0,11.88,0,23.83,0,36.19c13.32,0,26.19,0,39.66,0c0-11.93,0-23.98,0-36.3
		c5.35,0,10.12,0,15.3,0c0,29.35,0,58.72,0,88.42C100.37,172.7,95.5,172.7,90.2,172.7z"/>
	<path d="M195,128.55c0.21,9.11-0.95,17.97-5.08,26.21c-6.16,12.27-16.3,18.63-29.92,19.18c-14.14,0.57-25.97-4.62-32.46-17.39
		c-9.46-18.62-9.44-38.03,0.29-56.6c6.37-12.17,17.66-17.2,31.22-16.91c13.17,0.28,23.38,5.95,29.94,17.55
		C193.9,109.25,195.21,118.75,195,128.55z M180.31,128.58c-1.18-6.69-1.72-13.56-3.69-19.98c-2.68-8.74-9.41-13.32-17.76-13.55
		c-8.74-0.25-15.66,3.93-18.84,12.77c-4.93,13.72-4.92,27.79,0.06,41.49c3.17,8.72,10.23,12.91,18.95,12.64
		c8.4-0.25,15.05-4.87,17.68-13.62C178.6,142.04,179.13,135.35,180.31,128.58z"/>
	<path d="M378.03,160.88c0,4.38,0,7.87,0,11.76c-19.15,0-38.22,0-57.65,0c0-29.23,0-58.61,0-88.32c18.89,0,37.8,0,57.1,0
		c0,3.68,0,7.39,0,11.66c-13.83,0-27.57,0-41.63,0c0,8.47,0,16.4,0,24.91c11.89,0,23.79,0,35.92,0c0,4.18,0,7.78,0,12.02
		c-11.85,0-23.73,0-35.93,0c0,9.55,0,18.48,0,27.97C349.75,160.88,363.66,160.88,378.03,160.88z"/>
</g>
</svg>
