<?xml version="1.0" encoding="utf-8"?>
<!-- Generator: Adobe Illustrator 24.0.0, SVG Export Plug-In . SVG Version: 6.00 Build 0)  -->
<svg version="1.1" id="Layer_1" xmlns="http://www.w3.org/2000/svg" xmlns:xlink="http://www.w3.org/1999/xlink" x="0px" y="0px"
	 viewBox="0 0 256 256" style="fill:#FFF; enable-background:new 0 0 256 256;" xml:space="preserve">
<g>
	<path d="M256,27c0,67.33,0,134.67,0,202c-3.54,14.46-12.54,23.46-27,27c-67.33,0-134.67,0-202,0c-4.62-2.07-9.56-3.63-13.8-6.31
		C5.71,244.96,2.29,237.25,0,229C0,161.67,0,94.33,0,27C3.55,12.55,12.54,3.54,27,0c67.33,0,134.67,0,202,0
		c4.49,1.97,9.27,3.47,13.4,6.01C250.12,10.77,253.67,18.57,256,27z M128.37,10c-31.49,0-62.98-0.02-94.47,0.01
		C19,10.02,10.01,19.06,10.01,34.03c-0.02,62.65-0.01,125.3,0,187.95c0,14.97,9,24.01,23.89,24.02c62.65,0.02,125.3,0.01,187.95,0
		c15.25,0,24.14-8.95,24.14-24.27c0.01-62.48,0.01-124.97,0-187.45c0-15.31-8.9-24.26-24.15-24.27C190.69,9.99,159.53,10,128.37,10z
		"/>
	<path d="M119.06,181.6c0-35.53,0-70.67,0-106.21c5.95,0,11.83,0,18.02,0c0,35.31,0,70.56,0,106.21
		C131.26,181.6,125.39,181.6,119.06,181.6z"/>
</g>
</svg>
