<?xml version="1.0" encoding="utf-8"?>
<!-- Generator: Adobe Illustrator 24.0.0, SVG Export Plug-In . SVG Version: 6.00 Build 0)  -->
<svg version="1.1" id="Layer_1" xmlns="http://www.w3.org/2000/svg" xmlns:xlink="http://www.w3.org/1999/xlink" x="0px" y="0px"
	 viewBox="0 0 256 256" style="fill:#FFF; enable-background:new 0 0 256 256;" xml:space="preserve">
<g>
	<path d="M255,26c0,67.33,0,134.67,0,202c-3.54,14.46-12.54,23.46-27,27c-67.33,0-134.67,0-202,0c-4.62-2.07-9.56-3.63-13.8-6.31
		C4.71,243.96,1.29,236.25-1,228c0-67.33,0-134.67,0-202C2.55,11.55,11.54,2.54,26-1c67.33,0,134.67,0,202,0
		c4.49,1.97,9.27,3.47,13.4,6.01C249.12,9.77,252.67,17.57,255,26z M245,127.39c0-31.32,0.01-62.65,0-93.97
		C244.99,17.83,236.13,9.01,220.49,9C158.17,8.99,95.86,9,33.54,9C17.88,9.01,9.01,17.82,9,33.39c-0.01,62.48-0.01,124.97,0,187.45
		c0,15.25,8.95,24.16,24.25,24.16c62.48,0.01,124.97,0.01,187.45,0c15.33,0,24.28-8.89,24.29-24.13
		C245.01,189.71,245,158.55,245,127.39z"/>
	<path d="M97.06,180.58c0-35.46,0-70.7,0-106.26c6.04,0,11.91,0,18.38,0c0,30.55,0,60.92,0,91.68c16.33,0,32.08,0,48.14,0
		c0,4.98,0,9.57,0,14.58C141.64,180.58,119.62,180.58,97.06,180.58z"/>
</g>
</svg>
