<?xml version="1.0" encoding="utf-8"?>
<!-- Generator: Adobe Illustrator 24.0.0, SVG Export Plug-In . SVG Version: 6.00 Build 0)  -->
<svg version="1.1" id="Layer_1" xmlns="http://www.w3.org/2000/svg" xmlns:xlink="http://www.w3.org/1999/xlink" x="0px" y="0px"
	 viewBox="0 0 419.37 256" style="fill:#FFF; enable-background:new 0 0 419.37 256;" xml:space="preserve">
<g>
	<path d="M3.33,234.42c0-70.39,0-140.78,0-211.18c5.17-11.42,13.55-19.06,26-21.91c120,0,240,0,360,0
		c21.62,5.69,27.34,21.25,27.2,38.43c-0.51,60.73-0.19,121.47-0.21,182.21c-0.01,21.18-13.35,34.36-34.69,34.36
		c-63.97,0.01-127.94,0-191.91,0c-51.48,0-102.95,0.03-154.43-0.02c-12.9-0.01-22.69-5.61-29.11-16.84
		C5.21,237.8,4.28,236.11,3.33,234.42z M209.58,11.29c-57.48,0-114.96-0.01-172.44,0c-15.97,0-24.8,8.74-24.8,24.56
		c-0.01,61.9-0.01,123.81,0,185.71c0,16.15,8.75,24.8,25.06,24.8c114.63,0,229.25,0,343.88,0c16.31,0,25.05-8.66,25.05-24.81
		c0.01-61.74,0.01-123.48,0-185.21c0-16.49-8.65-25.05-25.31-25.05C323.87,11.29,266.72,11.29,209.58,11.29z"/>
	<path d="M231.37,173.36c-15.67,1.24-15.67,1.24-20.56-12.73c-2.75-7.86-2.75-7.86-11.22-7.86c-7.33,0-14.67,0.16-21.99-0.08
		c-3.07-0.1-4.4,1.02-5.24,3.81c-1.43,4.76-2.99,9.5-4.94,14.06c-0.58,1.36-2.59,2.8-4.08,2.95c-3.95,0.41-7.97,0.14-12.6,0.14
		c0.62-1.99,1.03-3.64,1.63-5.23c9.97-26.36,20.02-52.68,29.86-79.09c1.24-3.34,2.81-4.52,6.4-4.43c9.29,0.24,9.29,0.05,12.49,8.5
		c9.5,25.11,19.01,50.23,28.52,75.34C230.15,170.12,230.67,171.5,231.37,173.36z M190.89,103.99c-4.51,12.97-8.56,24.62-12.66,36.41
		c8.63,0,16.77,0,25.35,0C199.4,128.41,195.39,116.9,190.89,103.99z"/>
	<path d="M290.49,85.26c23.25,0,46.32,0,69.73,0c0,3.81,0,7.5,0,11.63c-8.91,0-17.67,0-27.1,0c0,25.67,0,50.93,0,76.47
		c-5.42,0-10.17,0-15.52,0c0-25.24,0-50.51,0-76.27c-9.32,0-18.06,0-27.11,0C290.49,92.91,290.49,89.21,290.49,85.26z"/>
	<path d="M74.66,161.71c13.99,0,26.95,0,40.25,0c0,4.01,0,7.7,0,11.68c-18.38,0-36.64,0-55.24,0c0-29.29,0-58.56,0-88.11
		c4.83,0,9.59,0,14.99,0C74.66,110.55,74.66,135.84,74.66,161.71z"/>
	<path d="M256.66,161.71c13.99,0,26.95,0,40.25,0c0,4.01,0,7.7,0,11.68c-18.38,0-36.64,0-55.24,0c0-29.29,0-58.56,0-88.1
		c4.83,0,9.59,0,14.99,0C256.66,110.55,256.66,135.84,256.66,161.71z"/>
</g>
</svg>
