<?xml version="1.0" encoding="utf-8"?>
<!-- Generator: Adobe Illustrator 24.0.0, SVG Export Plug-In . SVG Version: 6.00 Build 0)  -->
<svg version="1.1" id="Layer_1" xmlns="http://www.w3.org/2000/svg" xmlns:xlink="http://www.w3.org/1999/xlink" x="0px" y="0px"
	 viewBox="0 0 256 256" style="fill:#FFF; enable-background:new 0 0 256 256;" xml:space="preserve">
<g>
	<path d="M255,26c0,67.33,0,134.67,0,202c-3.54,14.46-12.54,23.46-27,27c-67.33,0-134.67,0-202,0c-4.62-2.07-9.56-3.63-13.8-6.31
		C4.71,243.96,1.29,236.25-1,228c0-67.33,0-134.67,0-202C2.55,11.55,11.54,2.54,26-1c67.33,0,134.67,0,202,0
		c4.49,1.97,9.27,3.47,13.4,6.01C249.12,9.77,252.67,17.57,255,26z M245,127.39c0-31.32,0.01-62.65,0-93.97
		c-0.01-15.59-8.86-24.41-24.5-24.42C158.18,8.99,95.86,9,33.54,9C17.88,9.01,9.01,17.82,9,33.38c-0.01,62.48-0.01,124.97,0,187.45
		c0,15.25,8.95,24.16,24.25,24.16c62.48,0.01,124.97,0.01,187.45,0c15.33,0,24.28-8.89,24.29-24.13
		C245.01,189.71,245,158.55,245,127.39z"/>
	<path d="M163.58,101.47c-6.53,17.08-12.57,32.88-18.6,48.68c-3.38,8.86-6.87,17.67-10.07,26.59c-1.09,3.05-2.42,4.47-6,4.37
		c-8.98-0.25-8.99-0.03-12.16-8.33c-8.36-21.91-16.71-43.82-25.08-65.72c-0.62-1.63-1.36-3.21-2.61-4.63
		c0.51,26.02,1.02,52.05,1.53,78.33c-6.64,0-12.39,0-18.42,0c0-35.46,0-70.72,0-106.73c7.32,0,14.75-0.16,22.15,0.18
		c1.07,0.05,2.43,2.32,3,3.81c8.97,23.63,17.83,47.31,26.72,70.97c0.7,1.86,1.45,3.71,2.54,6.52c1.01-2.47,1.75-4.17,2.4-5.9
		c8.94-23.82,17.93-47.62,26.71-71.51c1.17-3.19,2.6-4.35,6.02-4.18c6.28,0.31,12.59,0.09,19.21,0.09c0,35.77,0,71.14,0,106.75
		c-5.96,0-11.7,0-17.32,0C163.58,154.66,163.58,128.77,163.58,101.47z"/>
</g>
</svg>
