<?xml version="1.0" encoding="utf-8"?>
<!-- Generator: Adobe Illustrator 24.0.0, SVG Export Plug-In . SVG Version: 6.00 Build 0)  -->
<svg version="1.1" id="Layer_1" xmlns="http://www.w3.org/2000/svg" xmlns:xlink="http://www.w3.org/1999/xlink" x="0px" y="0px"
	 viewBox="0 0 419.37 256" style="fill:#FFF; enable-background:new 0 0 419.37 256;" xml:space="preserve">
<g>
	<path d="M3.33,234.42c0-70.39,0-140.78,0-211.18c5.17-11.42,13.55-19.06,26-21.91c120,0,240,0,360,0
		c21.62,5.69,27.34,21.25,27.2,38.43c-0.51,60.73-0.19,121.47-0.21,182.21c-0.01,21.18-13.35,34.36-34.69,34.36
		c-63.97,0.01-127.94,0-191.91,0c-51.48,0-102.95,0.03-154.43-0.02c-12.9-0.01-22.69-5.61-29.11-16.84
		C5.21,237.8,4.28,236.11,3.33,234.42z M209.69,11.29c-57.65,0-115.29-0.01-172.94,0.01c-15.54,0-24.4,8.89-24.41,24.45
		c-0.01,62.07-0.01,124.14,0,186.21c0,15.54,8.89,24.41,24.45,24.41c114.96,0.01,229.92,0.01,344.88,0
		c15.89,0,24.66-8.79,24.66-24.7c0.01-61.74,0.01-123.48,0-185.21c0-16.56-8.6-25.16-25.2-25.16
		C323.98,11.29,266.83,11.29,209.69,11.29z"/>
	<path d="M339.12,172.52c-4.99,0-9.6,0-14.31,0c0-21.6,0-43.02,0-65.07c-0.9,2.03-1.66,3.58-2.28,5.19
		c-7.08,18.41-14.25,36.79-21.08,55.29c-1.39,3.78-3.17,5.04-7.17,4.9c-3.77-0.14-6.24-0.35-7.83-4.68
		c-7.06-19.3-14.6-38.43-21.97-57.61c-0.41-1.06-0.87-2.09-1.42-3.42c0,21.88,0,43.41,0,65.26c-4.49,0-9.25,0-14.37,0
		c0-29.21,0-58.48,0-88.36c5.92,0,11.87-0.23,17.78,0.19c1.27,0.09,2.85,2.36,3.46,3.94c7.24,18.88,14.32,37.82,21.46,56.74
		c0.7,1.86,1.46,3.69,2.66,6.73c8.74-23.13,17.11-45.29,25.49-67.47c6.58,0,12.89,0,19.57,0
		C339.12,113.55,339.12,142.81,339.12,172.52z"/>
	<path d="M148.54,172.69c-4.53,0-8.72,0.3-12.82-0.15c-1.57-0.17-3.42-1.75-4.34-3.2c-11.17-17.49-22.18-35.07-33.24-52.63
		c-0.97-1.54-2-3.04-3.97-4.52c0,20,0,40.01,0,60.25c-5.62,0-10.38,0-15.49,0c0-29.3,0-58.57,0-88.43c4.44,0,8.92-0.3,13.3,0.17
		c1.51,0.16,3.19,2.02,4.14,3.51c11.31,17.79,22.5,35.66,33.73,53.49c0.85,1.35,1.79,2.63,3.48,5.11c0-21.46,0-41.56,0-61.98
		c5.28,0,10.04,0,15.21,0C148.54,113.53,148.54,142.79,148.54,172.69z"/>
	<path d="M166.29,84.17c5.18,0,9.8,0,15.08,0c0,1.91,0,3.67,0,5.42c0,17.76-0.05,35.52,0.02,53.29
		c0.06,14.38,9.47,21.54,23.51,18.15c6.62-1.6,10.36-5.76,11.43-12.27c0.53-3.26,0.67-6.6,0.68-9.91
		c0.06-18.07,0.03-36.14,0.03-54.52c5.13,0,9.88,0,15.33,0c0,1.72,0,3.47,0,5.22c0,16.77-0.55,33.55,0.13,50.29
		c1.04,25.52-17.98,36.39-39.89,33.39c-17.43-2.38-26.44-12.97-26.54-30.45c-0.11-18.26-0.03-36.52-0.02-54.78
		C166.04,86.86,166.19,85.73,166.29,84.17z"/>
</g>
</svg>
