<?xml version="1.0" encoding="utf-8"?>
<!-- Generator: Adobe Illustrator 24.0.0, SVG Export Plug-In . SVG Version: 6.00 Build 0)  -->
<svg version="1.1" id="Layer_1" xmlns="http://www.w3.org/2000/svg" xmlns:xlink="http://www.w3.org/1999/xlink" x="0px" y="0px"
	 viewBox="0 0 419.37 256" style="fill:#FFF; enable-background:new 0 0 419.37 256;" xml:space="preserve">
<g>
	<path d="M3.33,234.42c0-70.39,0-140.78,0-211.18c5.17-11.42,13.55-19.06,26-21.91c120,0,240,0,360,0
		c21.62,5.69,27.34,21.25,27.2,38.43c-0.51,60.73-0.19,121.47-0.21,182.21c-0.01,21.18-13.35,34.36-34.69,34.36
		c-63.97,0.01-127.94,0-191.91,0c-51.48,0-102.95,0.03-154.43-0.02c-12.9-0.01-22.69-5.61-29.11-16.84
		C5.21,237.8,4.28,236.11,3.33,234.42z M209.58,11.29c-57.48,0-114.96-0.01-172.44,0c-15.97,0-24.79,8.74-24.8,24.56
		c-0.01,61.9-0.01,123.81,0,185.71c0,16.15,8.75,24.8,25.06,24.8c114.63,0,229.25,0,343.88,0c16.31,0,25.05-8.66,25.05-24.82
		c0.01-61.74,0.01-123.48,0-185.21c0-16.49-8.65-25.05-25.31-25.05C323.87,11.29,266.72,11.29,209.58,11.29z"/>
	<path d="M256.69,85.99c13.97,0,27.68-1,41.18,0.28c13.76,1.3,20.63,11.14,19.61,24.67c-0.58,7.74-5.29,12.59-11.77,16.25
		c11.81,6.19,15.45,13.18,13.64,25.93c-1.45,10.21-8.9,18.42-20.48,19.34c-13.86,1.1-27.87,0.26-42.18,0.26
		C256.69,144.14,256.69,114.88,256.69,85.99z M272.16,162.05c7.75-0.4,15.24-0.17,22.51-1.34c6.89-1.11,10.02-6.57,9.64-14.07
		c-0.36-7.14-4.04-11.83-11.06-12.44c-6.88-0.6-13.85-0.13-21.09-0.13C272.16,143.2,272.16,152.06,272.16,162.05z M272.07,122.29
		c7.47-0.51,14.77-0.43,21.84-1.66c5.7-0.99,8.54-6.01,8.34-11.92c-0.21-6.26-2.92-10.19-9.33-10.9
		c-6.81-0.75-13.77-0.17-20.85-0.17C272.07,105.52,272.07,113.4,272.07,122.29z"/>
	<path d="M246.36,173.66c-4.79,0-9.13,0.23-13.41-0.14c-1.3-0.11-3.02-1.68-3.56-2.99c-1.95-4.75-3.59-9.63-5.11-14.54
		c-0.76-2.44-1.98-3.32-4.6-3.28c-9.16,0.16-18.33,0.16-27.49,0c-2.61-0.05-3.87,0.8-4.63,3.24c-1.53,4.9-3.18,9.77-5.07,14.55
		c-0.49,1.25-1.94,2.91-3.06,3c-4.43,0.35-8.9,0.14-13.99,0.14c3.78-10.01,7.32-19.44,10.89-28.86
		c6.93-18.29,13.98-36.54,20.71-54.9c1.34-3.66,2.88-5.17,7.01-5c8.87,0.37,8.88,0.1,12.04,8.44c9.51,25.11,19.02,50.22,28.52,75.34
		C245.17,170.19,245.68,171.72,246.36,173.66z M218.67,140.67c-4.26-12.21-8.32-23.85-12.78-36.67
		c-4.48,12.9-8.55,24.62-12.74,36.67C201.85,140.67,209.8,140.67,218.67,140.67z"/>
	<path d="M169.36,85.31c0,3.88,0,7.46,0,11.63c-9.06,0-17.95,0-27.33,0c0,25.72,0,50.86,0,76.36c-5.34,0-10.2,0-15.48,0
		c0-25.31,0-50.46,0-76.1c-9.14,0-17.88,0-27,0c0-4.18,0-7.88,0-11.89C122.62,85.31,145.69,85.31,169.36,85.31z"/>
</g>
</svg>
