<?xml version="1.0" encoding="utf-8"?>
<!-- Generator: Adobe Illustrator 24.0.0, SVG Export Plug-In . SVG Version: 6.00 Build 0)  -->
<svg version="1.1" id="Layer_1" xmlns="http://www.w3.org/2000/svg" xmlns:xlink="http://www.w3.org/1999/xlink" x="0px" y="0px"
	 viewBox="0 0 256 256" style="fill:#FFF; enable-background:new 0 0 256 256;" xml:space="preserve">
<g>
	<path d="M0,229C0,161.67,0,94.33,0,27C3.55,12.55,12.54,3.54,27,0c67.33,0,134.67,0,202,0c4.49,1.97,9.27,3.47,13.4,6.01
		c7.72,4.76,11.27,12.55,13.6,20.99c0,67.33,0,134.67,0,202c-3.54,14.46-12.54,23.46-27,27c-67.33,0-134.67,0-202,0
		c-4.62-2.07-9.56-3.63-13.8-6.31C5.71,244.96,2.29,237.25,0,229z M246,128.51c0-31.49,0.01-62.98-0.01-94.47
		c-0.01-14.97-8.99-24.02-23.89-24.03c-62.65-0.02-125.3-0.02-187.95,0c-15.25,0-24.15,8.95-24.15,24.26
		c-0.01,62.48-0.01,124.97,0,187.45c0,15.32,8.9,24.27,24.14,24.27c62.48,0.01,124.97,0.01,187.45,0c15.58,0,24.4-8.86,24.4-24.51
		C246.01,190.49,246,159.5,246,128.51z"/>
	<path d="M107.73,70.18c1.85-0.11,2.51-0.2,3.17-0.17c5.76,0.2,13.32-1.79,16.88,1.12c5.97,4.88,9.4,12.87,14.76,20.84
		c-5.49,0-9.59,0.07-13.68-0.05c-0.88-0.03-1.99-0.49-2.58-1.13C120.27,84.21,114.34,77.55,107.73,70.18z"/>
</g>
</svg>
