<?xml version="1.0" encoding="utf-8"?>
<!-- Generator: Adobe Illustrator 24.0.0, SVG Export Plug-In . SVG Version: 6.00 Build 0)  -->
<svg version="1.1" id="Layer_1" xmlns="http://www.w3.org/2000/svg" xmlns:xlink="http://www.w3.org/1999/xlink" x="0px" y="0px"
	 viewBox="0 0 256 256" style="fill:#FFF; enable-background:new 0 0 256 256;" xml:space="preserve">
<g>
	<path d="M255,26c0,67.33,0,134.67,0,202c-3.54,14.46-12.54,23.46-27,27c-67.33,0-134.67,0-202,0c-4.62-2.07-9.56-3.63-13.8-6.31
		C4.71,243.96,1.29,236.25-1,228c0-67.33,0-134.67,0-202C2.55,11.55,11.54,2.54,26-1c67.33,0,134.67,0,202,0
		c4.49,1.97,9.27,3.47,13.4,6.01C249.12,9.77,252.67,17.57,255,26z M245,126.61c0-31.16,0.01-62.32-0.01-93.47
		C244.99,17.9,236.03,9.01,220.71,9C158.22,8.99,95.74,8.99,33.26,9c-15.3,0-24.25,8.91-24.25,24.16
		C8.99,95.65,8.99,158.14,9,220.62c0,15.56,8.88,24.38,24.54,24.38c62.32,0.01,124.63,0.01,186.95,0c15.65,0,24.5-8.82,24.5-24.41
		C245.01,189.26,245,157.93,245,126.61z"/>
	<path d="M83.86,74c6.54,0,12.22-0.27,17.84,0.15c1.86,0.14,4.29,1.62,5.25,3.21c6.89,11.37,13.47,22.94,20.57,35.17
		c4.78-8.24,9.21-15.94,13.7-23.61c2.86-4.87,4.75-11.59,9.03-13.98c4.48-2.5,11.3-0.81,17.1-0.95c0.99-0.02,1.98,0,3.87,0
		c-1.18,2.03-2.02,3.54-2.92,5.02c-8.8,14.52-17.46,29.12-26.52,43.48c-2.24,3.55-1.95,5.96,0.16,9.31
		c9.12,14.51,17.97,29.2,26.9,43.83c0.93,1.52,1.75,3.11,2.99,5.34c-7.08,0-13.51,0.19-19.91-0.16c-1.28-0.07-2.78-2.03-3.62-3.45
		c-6.88-11.58-13.62-23.24-20.77-35.5c-6.82,11.63-13.54,22.64-19.77,33.92c-2.21,4-4.71,5.72-9.3,5.31
		c-4.78-0.43-9.64-0.1-15.14-0.1c0.89-1.71,1.48-3.01,2.21-4.21c9.46-15.48,18.89-30.98,28.47-46.38c1.52-2.44,1.55-4.22,0.03-6.68
		c-9.12-14.71-18.06-29.53-27.06-44.32C86.05,77.89,85.19,76.32,83.86,74z"/>
</g>
</svg>
