<?xml version="1.0" encoding="utf-8"?>
<!-- Generator: Adobe Illustrator 24.0.0, SVG Export Plug-In . SVG Version: 6.00 Build 0)  -->
<svg version="1.1" id="Layer_1" xmlns="http://www.w3.org/2000/svg" xmlns:xlink="http://www.w3.org/1999/xlink" x="0px" y="0px"
	 viewBox="0 0 256 256" style="fill:#FFF; enable-background:new 0 0 256 256;" xml:space="preserve">
<g>
	<path d="M255,26c0,67.33,0,134.67,0,202c-3.54,14.46-12.54,23.46-27,27c-67.33,0-134.67,0-202,0c-4.62-2.07-9.56-3.63-13.8-6.31
		C4.71,243.96,1.29,236.25-1,228c0-67.33,0-134.67,0-202C2.55,11.55,11.54,2.54,26-1c67.33,0,134.67,0,202,0
		c4.49,1.97,9.27,3.47,13.4,6.01C249.12,9.77,252.67,17.57,255,26z M9,126.48c0,31.49-0.01,62.98,0.01,94.47
		c0.01,14.98,8.99,24.03,23.88,24.03c62.65,0.02,125.3,0.01,187.95,0c15.26,0,24.16-8.94,24.16-24.25
		c0.01-62.48,0.01-124.97,0-187.45c0-15.33-8.89-24.29-24.13-24.29C158.38,8.99,95.9,8.99,33.42,9C17.83,9.01,9.01,17.87,9,33.51
		C8.99,64.5,9,95.49,9,126.48z"/>
	<path d="M126.63,124.59c7.52-15.55,14.79-30.11,21.57-44.89c2.02-4.4,4.34-6.38,9.29-5.81c4.37,0.51,8.84,0.11,14,0.11
		c-1.19,2.45-1.98,4.21-2.88,5.92c-10.02,18.97-20.16,37.87-29.98,56.94c-1.59,3.08-2.41,6.86-2.51,10.35
		c-0.31,11.1-0.12,22.21-0.12,33.54c-6.4,0-12.3,0-18.78,0c0-7.85-0.53-15.51,0.12-23.06c0.97-11.24-2.02-21-7.61-30.71
		c-8.96-15.55-16.98-31.64-25.38-47.52c-0.83-1.57-1.56-3.19-2.66-5.46c6.55,0,12.49-0.24,18.38,0.17c1.38,0.1,3.09,2.14,3.85,3.68
		C111.43,93.06,118.77,108.34,126.63,124.59z"/>
</g>
</svg>
