<?xml version="1.0" encoding="utf-8"?>
<!-- Generator: Adobe Illustrator 24.0.0, SVG Export Plug-In . SVG Version: 6.00 Build 0)  -->
<svg version="1.1" id="Layer_1" xmlns="http://www.w3.org/2000/svg" xmlns:xlink="http://www.w3.org/1999/xlink" x="0px" y="0px"
	 viewBox="0 0 256 256" style="fill:#FFF; enable-background:new 0 0 256 256;" xml:space="preserve">
<g>
	<path d="M255,26c0,67.33,0,134.67,0,202c-3.54,14.46-12.54,23.46-27,27c-67.33,0-134.67,0-202,0c-4.62-2.07-9.56-3.63-13.8-6.31
		C4.71,243.96,1.29,236.25-1,228c0-67.33,0-134.67,0-202C2.55,11.55,11.54,2.54,26-1c67.33,0,134.67,0,202,0
		c4.49,1.97,9.27,3.47,13.4,6.01C249.12,9.77,252.67,17.57,255,26z M9,126.48c0,31.49-0.01,62.98,0.01,94.47
		c0.01,14.98,8.99,24.03,23.87,24.04c62.65,0.02,125.3,0.01,187.95,0c15.26,0,24.16-8.94,24.17-24.25
		c0.01-62.48,0.01-124.97,0-187.45c0-15.33-8.89-24.29-24.12-24.29C158.39,8.99,95.91,8.99,33.42,9C17.83,9.01,9.01,17.87,9,33.51
		C8.99,64.5,9,95.49,9,126.48z"/>
	<path d="M88.27,180.71c-1.19-7.33,0.15-13.3,4.5-19.37c15.89-22.19,31.17-44.81,46.68-67.28c0.93-1.35,1.81-2.74,3.23-4.9
		c-18.48,0-36.28,0-54.32,0c0-5.27,0-9.86,0-14.8c25.63,0,51.16,0,76.93,0c0.59,6.11,0.53,11.5-3.37,17
		c-16.27,22.94-32.05,46.23-48,69.41c-1,1.46-1.92,2.98-3.27,5.1c19.05,0,37.43,0,56.18,0c0,5.14,0,9.85,0,14.85
		C140.73,180.71,114.66,180.71,88.27,180.71z"/>
</g>
</svg>
